<svg width="96" height="18" viewBox="0 0 96 18" fill="none" xmlns="http://www.w3.org/2000/svg">
<path d="M0.344 17.8734V0.593428H3.632L14.72 13.7934V0.593428H17.624V17.8734H14.336L3.224 4.64943V17.8734H0.344ZM23.2916 17.8734C22.6996 17.8734 22.1636 17.7294 21.6836 17.4414C21.2036 17.1374 20.8116 16.7454 20.5076 16.2654C20.2196 15.7854 20.0756 15.2494 20.0756 14.6574V7.16943C20.0756 6.57743 20.2196 6.04143 20.5076 5.56143C20.8116 5.08143 21.2036 4.69743 21.6836 4.40943C22.1636 4.10543 22.6996 3.95343 23.2916 3.95343H30.9956C31.6036 3.95343 32.1476 4.10543 32.6276 4.40943C33.1076 4.69743 33.4916 5.08143 33.7796 5.56143C34.0676 6.04143 34.2116 6.57743 34.2116 7.16943V12.3534H22.9316V14.5614C22.9316 14.6894 22.9716 14.8014 23.0516 14.8974C23.1476 14.9774 23.2596 15.0174 23.3876 15.0174H34.2116V17.8734H23.2916ZM22.9316 9.73743H31.3556V7.26543C31.3556 7.13743 31.3076 7.03343 31.2116 6.95343C31.1316 6.85743 31.0276 6.80943 30.8996 6.80943H23.3876C23.2596 6.80943 23.1476 6.85743 23.0516 6.95343C22.9716 7.03343 22.9316 7.13743 22.9316 7.26543V9.73743ZM36.1274 17.8734V17.2254L41.4074 10.7934L36.1274 4.60143V3.95343H39.3434L43.2794 8.58543L47.1914 3.95343H50.4074V4.60143L45.1274 10.7934L50.4314 17.2254V17.8734H47.2154L43.2794 13.0494L39.3434 17.8734H36.1274ZM56.0806 17.8734C55.4886 17.8734 54.9526 17.7294 54.4726 17.4414C53.9926 17.1374 53.6006 16.7454 53.2966 16.2654C53.0086 15.7854 52.8646 15.2494 52.8646 14.6574V7.16943C52.8646 6.57743 53.0086 6.04143 53.2966 5.56143C53.6006 5.08143 53.9926 4.69743 54.4726 4.40943C54.9526 4.10543 55.4886 3.95343 56.0806 3.95343H63.7846C64.3926 3.95343 64.9366 4.10543 65.4166 4.40943C65.8966 4.69743 66.2806 5.08143 66.5686 5.56143C66.8566 6.04143 67.0006 6.57743 67.0006 7.16943V14.6574C67.0006 15.2494 66.8566 15.7854 66.5686 16.2654C66.2806 16.7454 65.8966 17.1374 65.4166 17.4414C64.9366 17.7294 64.3926 17.8734 63.7846 17.8734H56.0806ZM56.1766 15.0174H63.6886C63.8166 15.0174 63.9206 14.9774 64.0006 14.8974C64.0966 14.8014 64.1446 14.6894 64.1446 14.5614V7.26543C64.1446 7.13743 64.0966 7.03343 64.0006 6.95343C63.9206 6.85743 63.8166 6.80943 63.6886 6.80943H56.1766C56.0486 6.80943 55.9366 6.85743 55.8406 6.95343C55.7606 7.03343 55.7206 7.13743 55.7206 7.26543V14.5614C55.7206 14.6894 55.7606 14.8014 55.8406 14.8974C55.9366 14.9774 56.0486 15.0174 56.1766 15.0174ZM69.0605 17.8734V7.16943C69.0605 6.57743 69.2045 6.04143 69.4925 5.56143C69.7965 5.08143 70.1885 4.69743 70.6685 4.40943C71.1645 4.10543 71.7005 3.95343 72.2765 3.95343H80.0285V6.80943H72.3725C72.2445 6.80943 72.1325 6.85743 72.0365 6.95343C71.9565 7.03343 71.9165 7.13743 71.9165 7.26543V17.8734H69.0605ZM84.9796 17.8734C84.3876 17.8734 83.8436 17.7294 83.3476 17.4414C82.8676 17.1374 82.4836 16.7454 82.1956 16.2654C81.9076 15.7854 81.7636 15.2494 81.7636 14.6574V9.47343H93.0436V7.26543C93.0436 7.13743 92.9956 7.03343 92.8996 6.95343C92.8196 6.85743 92.7156 6.80943 92.5876 6.80943H81.7636V3.95343H92.6836C93.2916 3.95343 93.8356 4.10543 94.3156 4.40943C94.7956 4.69743 95.1796 5.08143 95.4676 5.56143C95.7556 6.04143 95.8996 6.57743 95.8996 7.16943V17.8734H84.9796ZM85.0756 15.0174H93.0436V12.0894H84.6196V14.5614C84.6196 14.6894 84.6596 14.8014 84.7396 14.8974C84.8356 14.9774 84.9476 15.0174 85.0756 15.0174Z" fill="white"/>
</svg>
