  <svg
              width="32"
              height="33"
              viewBox="0 0 32 33"
              fill="none"
              xmlns="http://www.w3.org/2000/svg"
            >
              <mask
                id="mask0_2_24"
                maskUnits="userSpaceOnUse"
                x="0"
                y="0"
                width="32"
                height="33"
              >
                <rect
                  x="0.328674"
                  y="0.676422"
                  width="31.3942"
                  height="31.3942"
                  fill="#D9D9D9"
                />
              </mask>
              <g mask="url(#mask0_2_24)">
                <path
                  d="M25.9672 28.1463L17.7262 19.9053C17.0722 20.4286 16.32 20.8428 15.4697 21.148C14.6195 21.4533 13.7147 21.6059 12.7555 21.6059C10.3791 21.6059 8.3679 20.7829 6.72189 19.1368C5.07588 17.4908 4.25287 15.4796 4.25287 13.1033C4.25287 10.7269 5.07588 8.71573 6.72189 7.06971C8.3679 5.4237 10.3791 4.60069 12.7555 4.60069C15.1318 4.60069 17.143 5.4237 18.789 7.06971C20.435 8.71573 21.258 10.7269 21.258 13.1033C21.258 14.0625 21.1054 14.9673 20.8002 15.8176C20.495 16.6678 20.0808 17.42 19.5575 18.074L27.7985 26.315L25.9672 28.1463ZM12.7555 18.9897C14.3906 18.9897 15.7804 18.4174 16.925 17.2728C18.0696 16.1282 18.6419 14.7384 18.6419 13.1033C18.6419 11.4682 18.0696 10.0783 16.925 8.93374C15.7804 7.78916 14.3906 7.21687 12.7555 7.21687C11.1203 7.21687 9.7305 7.78916 8.58592 8.93374C7.44134 10.0783 6.86905 11.4682 6.86905 13.1033C6.86905 14.7384 7.44134 16.1282 8.58592 17.2728C9.7305 18.4174 11.1203 18.9897 12.7555 18.9897Z"
                  fill="white"
                  fill-opacity="0.35"
                />
              </g>
            </svg>